<?xml version="1.0" standalone="no"?>
<!DOCTYPE svg PUBLIC "-//W3C//DTD SVG 20010904//EN"
 "http://www.w3.org/TR/2001/REC-SVG-20010904/DTD/svg10.dtd">
<svg version="1.0" xmlns="http://www.w3.org/2000/svg"
 width="512.000000pt" height="512.000000pt" viewBox="0 0 512.000000 512.000000"
 preserveAspectRatio="xMidYMid meet" backgroundColor='#fff'>

<g transform="translate(0.000000,512.000000) scale(0.100000,-0.100000)"
fill="#fff" stroke="none">
<path d="M1857 4043 c-12 -12 -7 -34 13 -60 19 -25 20 -41 20 -619 0 -587 0
-595 22 -640 62 -133 248 -133 309 0 42 93 19 175 -90 326 -78 107 -145 242
-172 345 -16 60 -22 123 -26 255 -3 111 -2 171 4 165 5 -5 20 -39 33 -75 107
-306 386 -1051 402 -1072 27 -39 73 -48 234 -48 165 0 178 6 139 61 -23 33
-125 297 -125 324 0 14 226 757 240 790 5 12 9 -205 9 -525 1 -528 0 -546 -19
-578 -21 -34 -25 -58 -12 -65 4 -3 39 2 77 10 75 16 239 12 305 -7 50 -14 60
1 32 50 l-22 39 0 617 c0 609 0 617 21 651 38 61 29 65 -144 61 -165 -3 -188
-10 -223 -64 -15 -22 -144 -424 -251 -781 -20 -68 -39 -123 -42 -123 -3 0 -42
98 -85 218 -195 535 -256 695 -272 713 -9 10 -33 23 -53 29 -40 11 -314 14
-324 3z"/>
<path d="M1854 2486 c-3 -9 3 -31 15 -49 21 -34 21 -42 21 -648 l0 -614 -22
-43 c-32 -60 -23 -64 147 -59 152 3 189 14 221 62 13 20 284 882 284 904 0 28
42 -77 180 -454 88 -242 167 -450 175 -462 8 -12 25 -28 37 -34 25 -14 290
-26 332 -15 31 8 33 29 6 63 -19 25 -20 41 -20 611 0 415 -3 596 -12 623 -6
22 -26 55 -45 74 -110 114 -293 30 -293 -135 0 -70 18 -107 113 -246 150 -218
186 -328 194 -593 4 -129 3 -172 -6 -167 -6 4 -11 11 -11 16 0 22 -405 1107
-422 1132 -27 39 -73 48 -239 48 -164 0 -175 -5 -135 -59 12 -16 46 -96 76
-176 l53 -146 -124 -406 -124 -405 -3 543 -3 544 23 42 c14 27 19 46 13 52 -6
5 -40 3 -85 -5 -108 -19 -235 -14 -323 12 -10 3 -20 -1 -23 -10z"/>
</g>
</svg>
